<?xml version="1.0" encoding="UTF-8"?><svg id="a" xmlns="http://www.w3.org/2000/svg" width="150" height="150" viewBox="0 0 150 150"><path d="m73.11,5.65c-5.5,7.53,2.07,18.74,4.03,26.88-.73-2.9.27-5.8.43-8.3.08-1.35-.05-2.48.35-3.56.4-1.09,1.19-1.59,1.66-2.58,1.55-3.2,1.12-6.78-.71-9.7,1.36,1.08,2.65,1.86,3.82,2.77,0,.03,0,.05,0,.08.55.32,1.01.66,1.43,1.02-.25-.21-.52-.43-.83-.64.21.17.83.67.86.69h.01c3.32,3.36,1.41,5,7.25,6.34,1.77.65,3.11,2.04,4.74,2.9,4.42,2.35,9.27-.12,13.98.37-1.51-1.38-3.35-2.72-5.18-3.5-1.44-.61-3.86-1.12-5.01-2.1-1.25-1.07-1.91-3.15-3.14-4.35-1.2-1.16-3.31-2.11-4.94-2.47-1.87-.41-3.9.39-4.93.22-.63-.05-4.48-2.43-4.27,1.1-1.54-1.36-3.62-2.83-5.26-4.35,0,0,0,0,0,0-.75-.76-1.61-1.57-2.36-2.38,2.81-.85,5.24-.3,6.04-4.11h-6.62c-.02,1.17-.1,2.33-.02,3.51-1.43-1.36-3.05-2.61-4.85-3.51h-2.04c2.68,1.01,5.01,2.75,7.03,4.7-.56.04-1.06.35-1.46.96Z" fill="#f8f7f3"/><path d="m84.16,12.32h0s0,0,0,0Z" fill="#f8f7f3"/><path d="m62.08,20.95c1.48-1.57,2.87-3.54,3.62-5.58.93-2.52-.96-4.58-.55-6.97,1.14-3.82.92-7.25-3.49-8.41,0,0-2.77,0-2.77,0-.4,3.25-.52,6.53-2.34,9.36-.54.91-1,1.73-1.37,2.72-.46,1.22-1.33,2.22-1.76,3.45-.82,2.34.05,3.31.95,5.34,1.04,2.33-1.84,3.42-2.74,5.06,7.01-.03,5.77.25,10.47-4.97Z" fill="#f8f7f3"/><path d="m40.89,81.68c3.58,3.5,8.93,2.5,13.31,4.3-1.06-1.75-2.45-3.56-3.99-4.82-1.21-1-3.39-2.16-4.22-3.43-.9-1.38-.94-3.56-1.79-5.06-.82-1.45-2.58-2.96-4.04-3.76-1.68-.92-3.85-.72-4.79-1.18-.59-.23-3.61-3.59-4.4-.15-1.41-2.17-3.3-4.58-4.58-7.01-.77-1.45-1.46-2.96-2.53-4.24,1.22,1.3,4.9,1.05,6.65-.1,1.53-1.12,2.26-1.78,4.19-2.15,3.71-.76,8.05-1.63,10.62-4.56-6.1,1.01-11.83-4.05-17.66-2.5-1.08.32-2.73.68-3.61,1.34-1.71,1.37-4.04,3.85-2.84,6.04-.28-.42-.37-.93-.33-1.43-1.38-1.14-3.95-2.88-5.61-2.71,1.66-.37,3.29-.99,4.75-1.71,6.26-3.03,5.85-1.67,7.94-8.32-1.9.45-3.8,2.8-5.84,1.34-1.77-1.27-2.49-2.27-5.06-2.05-1.35.11-2.59.68-3.94.82-1.09.12-2.05.34-3.11.63-3.34,1-6.64.38-10.01.02v5.51c1.62,2.21,4.1,1.92,6.61,2.02,2.6.2,4.37,2.59,7.28,2.01,5.03.73,8.68,4.69,11.05,8.91-.55-.12-1.12.04-1.67.51-7.4,5.68-3.3,18.56-3.71,26.93.12-2.99,1.9-5.49,2.75-7.84,1.04-3.45,1.09-3.23,3.66-5.33,2.88-3.24,3.05-7.4,1.53-11.01.22.52.4,1.04.55,1.58,1.07,1.37,1.99,2.49,2.86,3.66,0,.03,0,.05-.01.08.43.46.79.91,1.08,1.38-.18-.28-.38-.55-.62-.84.15.22.61.87.63.9h.02c.7,1.12,1.04,2.34,1.29,3.98.39,2.35,2.14,2.86,3.87,4.15,1.51,1.13,2.41,2.83,3.73,4.12Z" fill="#f8f7f3"/><path d="m31.99,69.44h0s0,0,0,0Z" fill="#f8f7f3"/><path d="m94.86,121.33h0s0,0,0,0Z" fill="#f8f7f3"/><path d="m102.75,108.4c-1.21,1.39-1.97,3.16-3.38,4.41-1.62,1.43-3.33,2.07-3.53,4.45-.11,1.66-.36,2.9-.96,4.08h-.02s-.42.7-.56.94c.21-.31.39-.6.54-.89-.25.49-.57.97-.96,1.46,0,.03.01.05.02.08-.77,1.25-1.65,2.45-2.57,3.91.62-3.27-.13-6.7-2.82-9.27-.8-.76-1.71-.94-2.48-1.81-.76-.87-1.04-1.97-1.6-3.2-1.04-2.28-3.01-4.62-3.37-7.6,1.09,8.29-1.96,21.5,5.87,26.54.82.6,1.64.57,2.3.05-.18.15-.39.26-.6.32-.79,1.71-1.75,3.36-2.95,4.87.39-.35.93-.61,1.35-.89-.59.41-1.33.71-1.72,1.33-.87,1.01-1.88,1.96-2.98,2.72-.72-4.2-3.37-7.86-5.61-11.36-1.35-1.79-3.98-1.23-5.78-2.03.61,1.77,3.05,3.36,1.85,5.45-1.04,1.81-1.93,2.61-1.47,5.04,1.11,4.3,3.33,8.46,3.12,12.99h6.62c.2-1.22-.07-2.4-.12-3.88-.05-1.9,1.16-3.49,1.37-5.28,1.01-.62,1.95-1.36,2.78-2.2.27,1.66,2.04,3.4,3.53,4.34.93.59,2.6.81,3.71,1.04,5.94,1.07,11.24-4.44,17.4-3.92-2.8-2.72-7.2-3.24-10.95-3.69-1.95-.21-2.74-.81-4.35-1.81-1.84-1.01-5.51-.96-6.64.43,1.25-1.83,1.94-3.99,2.88-5.98-.02.05-.04.1-.06.15.99-2.01,2.4-4.12,3.35-5.95,1.07,3.36,3.8-.22,4.38-.5.9-.53,3.08-.51,4.68-1.56,1.4-.92,3.02-2.56,3.73-4.08.86-1.85.48-4.34,1.86-5.88.62-.73,1.39-1.34,2.14-1.96,2.15-1.63,3.67-3.83,4.89-6.24-4.22,2.15-9.64,1.58-12.92,5.36Z" fill="#f8f7f3"/><path d="m113.23,81.43h0s0,0,0,0Z" fill="#f8f7f3"/><path d="m5.85,31.57c.67-3.56.07-7.2-.06-10.78-.17-.41-.3-.83-.32-1.24-.2,1.95.03,3.93,0,5.87-1.73-.64-3.72-.76-5.47-1.34v7.8c3.53-.19,4.03-2.86,5.44-5.34.3-.43.44-.72.27-.94.17.22.03.5-.27.94.43,4.99-1.83,9.66-5.45,12.98v1.13c2.72-2.38,5.01-5.49,5.85-9.08Z" fill="#f8f7f3"/><path d="m6.44,23.05c-.49,1.5,3.52,5.26,6.41,5.46,2.35.16,3.59.12,5.72,1.32,4.14,2.26,8.97,4.91,13.77,4.18-6.62-3.93-8.01-13.35-14.8-16.56-1.29-.56-3.14-1.55-4.51-1.62-2.36-.13-5.69.43-7.01,2.18,1.27-4.12,2.81-8.25,4.59-12.15.91-1.65,2.6-2.63,3.89-3.94-.29-.06-.57-.11-.86-.17-4.16,2.79-4.65,6.46-6.06,10.91-.72,2.02-1.66,4.02-2.02,6.15-.5,1.55,1.05,2.84.87,4.24Z" fill="#f8f7f3"/><path d="m143.49,117.91c-1.25,1.41-3.02,2.16-4.42,3.36-3.79,3.26-3.25,8.68-5.42,12.89,1.83-.9,3.75-2.14,5.14-3.56,1.1-1.12,2.44-3.19,3.78-3.91,2.58-1.1,5.2-.51,7.43-2.91v-9.63c-4.02.38-4.04.6-6.51,3.75Z" fill="#f8f7f3"/><path d="m143.32,102.98c5.08,1.75,3.1,3.09,6.68,5.53v-8.48c-4.89-.04-9.45-.06-14.26-.46,2.97.37,5.31,2.36,7.58,3.41Z" fill="#f8f7f3"/><path d="m49.58,149.25c-1.92-.52-3.87-1.09-5.79-1.53-2.55-.59-5.08-1.33-6.84-3.37-.13.2-.26.4-.38.61,2.49,2.89,6.55,2.92,10.02,3.75,1.98.46,3.95,1.23,6.01,1.29-.27-.07-.52-.17-.75-.32-.77-.08-1.53-.25-2.28-.43Z" fill="#f8f7f3"/><path d="m60.23,148.73c-1.94.22-3.91.59-5.8.96.78-.41,1.59-1.02,2.22-.91,1.48.32,4.68-3.88,4.59-6.67-.08-2.26-.24-3.44.7-5.6,1.75-4.18,3.81-9.06,2.64-13.58-2.03,3.75-5.28,6.63-8.82,8.85.21-.13.42-.27.63-.41-.11-2.59-.6-5.12-1.25-7.6.13.4.25.81.34,1.22-.26-1.84-.29-4.04-.47-5.73,1.43.43,1.79-1.99,2.2-2.89.46-.8,2.14-1.76,2.91-3.27.67-1.32,1.19-3.31,1.06-4.78-.13-1.52-1.2-3.14-1.23-4.6-.03-1.35.97-3.29,1.36-4.63.49-1.69.6-3.72.49-5.53-2.3,3.52-6.71,5.48-7.57,9.84-.32,1.61-.12,3.3-.65,4.89-2.75,5.22.96,5.27.23,10.15.36.36.68.59.96.73.05,1.13-.02,2.41.07,3.78-1.17-2.72-3.43-4.88-6.7-5.43-.96-.16-1.72.16-2.72-.1-.99-.26-1.75-.93-2.77-1.55-1.9-1.16-4.52-1.89-6.26-3.9,4.93,5.54,9.28,16.75,17.54,16.56.98.06,1.58-.52,1.76-1.29-.06.27-.16.52-.32.71.21,1.26.33,2.58.31,3.89-.38.24-.77.47-1.15.69-1.79,2.47-3.5,3.7-4.29,6.18-.41,1.28-1.17,3.16-1.11,4.47.72,7.66,3.55,7.27,9.93,6.28-.05.13-.09.3-.13.52h2.77c-.55-.18-1.07-.27-1.56-.61,2.52-.31,5.06-.4,7.42.6.02.03,2.04,0,2.06,0-2.95-1.57-6.11-1.84-9.35-1.27Z" fill="#f8f7f3"/><path d="m2.03,113.44h0s0,0,0,0Z" fill="#f8f7f3"/><path d="m23.71,107.34c-1.21-1.82-3.49-4.36-5.78-3.35.44-.25.96-.29,1.45-.21,1.01-1,1.91-2.16,2.57-3.42l-.21-1.31c-.05.13-.11.26-.17.38,0,0,.02.35-.02.04-.04.09-.09.19-.13.28.05.12-.01.03-.01.03-.02.03-.03.06-.05.1.06.24-.03.08-.03.08,0,0,0,0,0-.01-.05.1-.16.29-.22.39,0,.16-.07.13-.07.13,0,0-.15.23-.16.24-.02.14,0,0,0,0-1.97,3-5.07,5.11-8.27,6.57-.13.39-.42.8-.84,1.08,4.04-3.74-7.47-9.05-11.77-8.34v8.49c2.28,1.53,4.98,1.91,7.56,1.43-1.47.91-2.67,1.78-3.93,2.55-.03,0-.05-.01-.08-.02-.33.26-.67.5-1.02.71.15-.09.3-.19.45-.29-.24.13-.92.54-.95.55h0c-.64.34-1.32.58-2.04.71v9.62c2.75-2.32,2.57-4.44,3.44-6.81.29-.58,3.88-3.28.52-4.38,1.82-.94,3.95-2.35,5.96-3.32,1.94-.93,4.06-1.58,5.85-2.8-1.39,1.11-1.46,4.79-.46,6.63.98,1.62,1.58,2.41,1.78,4.36.44,3.76.94,8.16,3.64,10.97-.25-8.08,6.86-12.7,2.98-21.09Z" fill="#f8f7f3"/><path d="m132.37,54.04c-.23-.19-.54.12-.31.31.23.19.54-.12.31-.31Z" fill="#f8f7f3"/><path d="m139.49,50.07h0s0,0,0,0Z" fill="#f8f7f3"/><path d="m148.14,41.86c.44-.83.35-1.81-.57-2.51-7.21-6.49-19.62.15-28.26,1.31,3.08-.45,5.97.9,8.54,1.32,1.39.23,2.57.21,3.65.74,1.09.53,1.52,1.4,2.5,2,3.28,2.01,6.98,1.83,10.13.29-1.27,1.28-2.22,2.56-3.29,3.67-.03,0-.05,0-.08,0-.39.53-.78.97-1.2,1.36.25-.23.49-.49.74-.78-.21.2-.78.79-.8.82h.01c-1.02.94-2.21,1.53-3.84,2.09-2.33.85-2.52,2.73-3.51,4.75-.73,1.48-1.96,2.59-2.96,3.86-2.29.54-4.37,1.8-6.03,3.45-.13-.82-.63-1.65-1.18-2.32,0,0,0,0,0,0-.06-.07-.12-.15-.23-.27,0,0,0,0,0,0-1.59-1.9-3.37-2.48-5.78-2.86-1.27-.28-2.43-.13-3.6.08-2.62-3.29-6.69-4.63-10.52-5.85-1.73-.66-3.68-1.7-5.24-2.36,1.07-1.05-.87-2.52-1.46-3.33-.48-.79-.5-2.73-1.45-4.13-3-4.09-4.35-3.12-8.29-4.4-1.2-.62-2.41-2.45-3.39-3.43-1.25-1.25-2.96-2.32-4.6-3.11,1.97,3.71,1.54,8.53,4.94,11.39,1.25,1.06,2.83,1.7,3.96,2.94,3.23,4.93,5.08,1.72,8.99,4.72.49-.14.85-.3,1.1-.48,1,.52,2.06,1.12,3.28,1.77.5.05,1,.13,1.49.24-3.4-.79-7.02-.02-9.42,3-1.44,2.57-1.26,2.59-4.1,4.01-1.93,1.1-3.84,3.04-6.44,3.59,7.24-1.63,19.15,0,22.98-7.33.33-.55.38-1.08.19-1.54,2.64.95,5.25,2.34,7.19,4.45-.61.11-1.22.22-1.87.27-3.27,1.9-7.24,3.38-11.17,3.24,2.77,2.74,7.16,3.31,10.91,3.81,1.95.23,2.73.84,4.33,1.85,1.77,1.09,5.31.84,6.48-.14-1.17,1.78-1.87,3.83-2.79,5.74.02-.05.04-.11.06-.16-1.01,2-2.44,4.1-3.42,5.91-1.04-3.37-3.8.18-4.38.46-.9.52-3.09.48-4.7,1.51-1.41.9-3.05,2.53-3.77,4.04-.74,1.55-.63,3.73-1.43,5.17-.74,1.33-2.83,2.64-3.96,3.72-1.44,1.37-2.71,3.27-3.64,5.09,4.24-2.1,9.65-1.48,12.97-5.22,1.23-1.38,2-3.14,3.43-4.37,5.02-3.32,2.63-4.15,4.58-8.48h.02s.43-.7.57-.94c-.21.3-.4.59-.55.88.26-.48.58-.96.98-1.45,0-.03-.01-.05-.02-.08.79-1.24,1.67-2.43,2.61-3.88-.65,3.26.06,6.7,2.72,9.29.79.77,1.7.96,2.46,1.84.75.87,1.02,1.98,1.57,3.22,1.01,2.29,2.96,4.65,3.29,7.63-1-8.3,2.18-21.47-5.59-26.6-.82-.61-1.63-.59-2.3-.08.19-.15.39-.26.6-.31.81-1.7,1.79-3.34,3-4.84.27-.26.45-.55.54-.85-.04.14-.1.29-.17.41,1.52-1.72,3.37-3.24,5.59-3.96-2.7,4.28-.75,9.48-1.74,14.22,1.59-1.41,3.17-3.18,4.17-4.99.79-1.43,1.57-3.87,2.71-4.96,1.24-1.18,3.46-1.64,4.84-2.79,1.33-1.12,2.54-3.2,3.08-4.85.62-1.89,0-4.08.3-5.12.12-.64,2.99-4.37-.68-4.53,2.37-2.31,4.97-5.17,7.77-7.17.45,1.56-.01,3.59,1.03,4.96v-5.51c-.11-.01-.23-.02-.34-.02.11-.1.23-.2.34-.3v-1.13c-.52.51-1.04.98-1.59,1.44,0,.3-.1.61-.26.9Z" fill="#f8f7f3"/><path d="m142.83,20.1c-3.61-2.38-4.68-3.71-9-1.77-2.53.83-3.35-2.27-4.95-3.38.22,2.2-1.21,4.99.17,6.93,2.69,3.2,5.45,6.83,9.25,8.78,2.51,1.23,4.84-.5,7.28.17,1.69.47,2.88,1.15,4.43,1.06v-7.8c-2.69-.67-4.76-2.69-7.17-3.98Z" fill="#f8f7f3"/></svg>