<svg xmlns="http://www.w3.org/2000/svg" width="195.782" height="77.963" viewBox="0 0 195.782 77.963">
  <g id="egs-logo" transform="translate(-2.11 -1.024)">
    <path id="Path_8140" data-name="Path 8140" d="M20.65,63.59a12.7,12.7,0,0,0,.24,2.03c.65,2.98,2.24,4.33,4.77,4.33,2.71,0,3.83-2.83,4.07-3.42l.44.47c-.06.41-.88,4.07-5.66,4.07-4.16,0-6.4-3.09-6.81-6.54l-3.71,1.15c-3.12.97-5.95,1.06-7.66-.38a1.686,1.686,0,0,1-.32-2.27.847.847,0,0,1,1.18-.09c.97.5.77,1.62,1.53,2.21.94.62,2.39.71,5.25-.15l3.68-1.15c-.21-4.1,2.12-8.46,6.87-8.46a5.6,5.6,0,0,1,5.66,5.22c0,.12-.09.15-.27.21l-9.25,2.77Zm6.81-2.71s0-4.77-3.18-4.77c-4.07,0-3.68,6.81-3.68,6.81l6.87-2.03Z" fill="#3c3e42"/>
    <path id="Path_8141" data-name="Path 8141" d="M36.09,69.22c0,.68,0,.71,1.06.71,3.54,0,6.72-1.92,6.72-5.13a3.6,3.6,0,0,0-2.98-3.77,2.275,2.275,0,0,0-2.48,1.27,1.845,1.845,0,0,1,.94-.29,1.556,1.556,0,0,1,1.53,1.53,1.442,1.442,0,0,1-1.39,1.53,1.755,1.755,0,0,1-1.97-1.65,2.838,2.838,0,0,1,3.09-2.86c1.73,0,4.16,1.59,3.89,4.95a5.389,5.389,0,0,1-3.3,4.3,8.655,8.655,0,0,1-4.39.8H31.3v-.44l1.8-.24c.24-.03.24-.21.24-.71V51.45c0-.68,0-2.89-.44-2.89l-1.8.06v-.68c2.42,0,3.77-.88,4.45-.94.38,0,.53.24.53,1.06V69.22Z" fill="#3c3e42"/>
    <path id="Path_8142" data-name="Path 8142" d="M50.52,64.32a4.812,4.812,0,0,1-1.59-3.83,5.126,5.126,0,0,1,5.22-5.1,5.279,5.279,0,0,1,4.27,2.18c1.3,1.86,2.86,1.53,2.86,1.21,0-.29-.94-.62-.94-1.44a1.177,1.177,0,0,1,1.3-1.24,1.47,1.47,0,0,1,1.33,1.06,2,2,0,0,1-1.74,2.36,2.691,2.691,0,0,1-2.06-.53,5.24,5.24,0,0,1-5.01,6.78,5.963,5.963,0,0,1-2.95-.85c-.91.41-3.36,2.77-.24,3.98,5.81-.94,8.16-1.41,9.64,1.8.32.71,1.44,6.28-6.1,7.93-5.45,1.21-8.05-.85-8.19-3.27a4.847,4.847,0,0,1,3.36-4.54c-3.95-2.3-.8-5.19,1.18-6.16l-.32-.32ZM49.08,74.55c0,1.68,1.71,3.6,5.19,3.33,3.92-.32,4.86-2.8,5.1-3.95.56-3.3-1.65-4.45-8.63-3.09a5.066,5.066,0,0,0-1.65,3.71Zm5.1-18.68c-1.3-.03-2.62,1.53-2.62,4.69s1.27,4.74,2.53,4.77c1.3.03,2.62-1.56,2.62-4.77S55.44,55.9,54.18,55.87Z" fill="#50591c"/>
    <path id="Path_8143" data-name="Path 8143" d="M68.65,57.61c1.3-1.86,3.06-2.65,4.72-1.83,1.41-1.36,1.74-2.24,1.8-3.15,0-.94-1-1.5-.85-2.53a.88.88,0,0,1,.97-.86,1.657,1.657,0,0,1,1.44,1.62c.12,1.83-1.12,3.42-3.04,5.1a1.977,1.977,0,0,1,.97,2.39,1.727,1.727,0,0,1-1.47,1.27,1.468,1.468,0,0,1-1.71-1.15,2.188,2.188,0,0,1,1.12-2.03c0-.41-3.95-.94-3.95,5.22v7.57c0,.5,0,.68.24.71l1.8.24v.44H63.88v-.44l1.8-.24c.24-.03.24-.21.24-.71V59.92c0-.68,0-2.92-.44-2.92l-1.8.06v-.68c2.45,0,3.8-.91,4.45-.94.38,0,.53.27.53,1.12v1.06Zm4.27-.88a1.744,1.744,0,0,0-.91,1.8.909.909,0,0,0,1.18.65C73.99,59.03,73.69,57.5,72.92,56.73Z" fill="#50591c"/>
    <path id="Path_8144" data-name="Path 8144" d="M85.68,66.98c0,1.12.24,2.71.47,2.71h1.77v.44a6.641,6.641,0,0,0-3.8.91,1.242,1.242,0,0,1-1.18-1.36V68.53a4.193,4.193,0,0,1-3.77,2.51c-3.48,0-4.45-3.65-2.53-5.84l.47-.47,5.83-1.83V59.75a4.5,4.5,0,0,0-.65-2.95c-.91-.91-2.56-.65-3.57,0a3,3,0,0,0-1.62,2.3s.24-.53,1.18-.53a1.338,1.338,0,0,1,1.3,1.41,1.358,1.358,0,0,1-1.44,1.38,1.832,1.832,0,0,1-1.68-1.27,3.424,3.424,0,0,1,1.38-3.54,5.151,5.151,0,0,1,3.12-1.12c4.27-.29,4.72,2.53,4.72,4.07v7.46Zm-7.43-1.97c-1.15,2.48.47,4.18,1.8,4.42.83.15,2.89,0,2.89-2.89V63.56L78.25,65Z" fill="#50591c"/>
    <path id="Path_8145" data-name="Path 8145" d="M104.28,70.07c2.95.41,3.74-1.15,3.51-1.41-.12-.12-.24-.12-.5-.06a1.13,1.13,0,0,1-.68-.15,1.3,1.3,0,0,1,1.09-2.36,2.082,2.082,0,0,1,.8,2.92,3.223,3.223,0,0,1-3.06,1.59H98.22v-.44l1.8-.24c.24-.03.24-.21.24-.71V61.4c0-3.51-.77-4.86-2.8-4.86-2.92,0-3.15,2.95-3.15,3.6v9.08c0,.5,0,.68.24.71l1.8.24v.44H89.54v-.44l1.8-.24c.24-.03.24-.21.24-.71V59.91c0-.68,0-2.92-.44-2.92l-1.8.06v-.68a12.85,12.85,0,0,0,4.27-.94c.53-.12.71.15.71,1.35l4.51-1.35c1.8,0,4.18,1.12,4.18,5.1v8.69c0,.5,0,.68.24.71l1.06.15Z" fill="#50591c"/>
    <path id="Path_8146" data-name="Path 8146" d="M122.22,55.87a6.551,6.551,0,0,0-.06,1.06c0,.88.27,2.83.27,2.83h-.47a3.541,3.541,0,0,0-3.74-3.74c-2.12,0-2.95,1.12-2.77,2.8.18,1.62,3.36,2.77,4.21,3.18,2.21,1.06,3.65,2.12,3.89,4.51.53,5.16-5.28,5.51-8.05,3.89-1.74,1.12-2.27,2-2.48,2.86-.18.94.71,1.68.38,2.65a.9.9,0,0,1-1.27.62,1.72,1.72,0,0,1-.97-1.8c.21-1.77,1.94-3.24,3.95-4.6a3.017,3.017,0,0,1-1.41-3.06c.21-1.12,1.62-1.44,2.71-1.12a1.734,1.734,0,0,1,1.33,1.62c0,.77-.21,1.39-1.56,2.33a3.089,3.089,0,0,0,2.89.71,2.893,2.893,0,0,0,2.48-2.68c0-1.41-1.53-2.09-3.24-2.86-2.18-.94-4.6-2.12-4.6-5.3a4.208,4.208,0,0,1,4.39-4.39,6.722,6.722,0,0,1,2.71.65.87.87,0,0,0,.97-.15h.44ZM115.85,69.6a2.1,2.1,0,0,0,1.18-2.42,1.038,1.038,0,0,0-1.39-.59c-1.06.3-.56,2.24.21,3.01Z" fill="#3c3e42"/>
    <path id="Path_8147" data-name="Path 8147" d="M138.27,66.51c.03,1.09.09,2.8.53,2.8l1.74-.06v.59a8.159,8.159,0,0,0-4.74,1.24c-.29,0-.35-.27-.35-1.33l-4.6,1.33c-2.03-.15-4.18-.53-4.18-5.39V60.3c0-.74,0-3.39-.47-3.39a16.786,16.786,0,0,0-1.8.09v-.65c2.59,0,3.92-1,4.54-1.03.35,0,.47.29.47,1.21v8.31c0,3.8.74,5.16,2.77,5.16a3.322,3.322,0,0,0,3.36-3.6V60.3c0-.74,0-3.39-.47-3.39a16.4,16.4,0,0,0-1.77.09v-.65a11.936,11.936,0,0,0,4.33-1c.47-.12.65.12.65,1.18v9.99Z" fill="#3c3e42"/>
    <path id="Path_8148" data-name="Path 8148" d="M144.29,63.59a12.7,12.7,0,0,0,.24,2.03c.65,2.98,2.24,4.33,4.77,4.33,2.71,0,3.83-2.83,4.07-3.42l.44.47c-.06.41-.88,4.07-5.66,4.07s-6.93-3.89-6.9-7.81,2.39-7.87,6.9-7.87a5.441,5.441,0,0,1,5.66,5.22c0,.12-.09.15-.27.21l-9.25,2.77Zm6.81-2.71s0-4.77-3.18-4.77c-4.07,0-3.68,6.81-3.68,6.81l6.87-2.03Z" fill="#3c3e42"/>
    <path id="Path_8149" data-name="Path 8149" d="M170.38,70.16v.44h-6.81v-.44l1.8-.24c.24-.03.24-.21.24-.71V61.4c0-3.51-.77-4.57-2.8-4.57a3.069,3.069,0,0,0-3.15,3.3v9.08c0,.5,0,.68.24.71l1.8.24v.44h-6.81v-.44l1.8-.24c.24-.03.24-.21.24-.71V59.9c0-.68,0-2.92-.44-2.92l-1.8.06v-.68a13.673,13.673,0,0,0,4.33-.97c.47-.09.65.21.65,1.38l4.51-1.35c1.8,0,4.18,1.12,4.18,5.1v8.69c0,.5,0,.68.24.71l1.8.24ZM159.15,49.62c.94-1.47,1.77-1.24,3.36-.68,1.15.38,3.39,1.27,4.1.44a9.219,9.219,0,0,0,.65-.85l.27.21-1.36,1.97c-1.06,1.53-2.09,1.3-3.65.71-.68-.24-3.06-1.47-3.83-.44-.41.56-.62.91-.62.91l-.3-.21,1.38-2.06Z" fill="#3c3e42"/>
    <path id="Path_8150" data-name="Path 8150" d="M197.56,55.31a1.763,1.763,0,0,1,0,2.06c-1.24,1.8-5.1,3.03-12.55,3.03a8.471,8.471,0,0,1,.5,2.89c0,4.33-3.24,7.9-7.19,7.9s-7.19-3.57-7.19-7.9,3.24-7.93,7.19-7.93a7.137,7.137,0,0,1,6.42,4.36c7.37.06,9.72-1.09,10.52-1.92.59-.74.09-1.8.85-2.53a.907.907,0,0,1,1.44.03Zm-15.21,7.9a14.73,14.73,0,0,0-.29-2.83c-3.74-.24-5.92-1.18-6.57-2.45a11.047,11.047,0,0,0-1.21,5.28c0,4.13,1.8,7.4,4.04,7.4s4.04-3.27,4.04-7.4Zm-4.04-7.34c-1.41,0-2.12.68-1.83,1.44.35.94,2,2,5.36,2.36-.68-2.3-2-3.8-3.54-3.8Z" fill="#3c3e42"/>
    <path id="Path_8151" data-name="Path 8151" d="M91.9,33.47a1.646,1.646,0,0,0,.2-.31Z" fill="#231f20"/>
    <path id="Path_8152" data-name="Path 8152" d="M92.99,31.85c-.22.27-.4.54-.58.81A6.894,6.894,0,0,0,92.99,31.85Z" fill="#231f20"/>
    <path id="Path_8153" data-name="Path 8153" d="M92.02,33.07c.11-.08.17-.08.08.09l.31-.5a5.035,5.035,0,0,1-.39.4Z" fill="#231f20"/>
    <path id="Path_8154" data-name="Path 8154" d="M92.02,33.07c-.1.07-.24.2-.3.24A2.613,2.613,0,0,0,92.02,33.07Z" fill="#231f20"/>
    <path id="Path_8155" data-name="Path 8155" d="M91.51,32.08c1.14-.84,1.59-2.65,2.85-3.49.5-.77,1.71-2.84.84-1.75-2.52,3.05-4.05,6.03-6.22,9.2a16.329,16.329,0,0,0,2.53-3.96Z" fill="#231f20"/>
    <path id="Path_8156" data-name="Path 8156" d="M95.31,28.42a75.331,75.331,0,0,1,6.67-7.36c.22-.34-.3.06-.4.08a6.139,6.139,0,0,0,1.5-1.21c-.44.49-.85.78-1.21,1.27a40.429,40.429,0,0,1,3.57-3.19l-.08.03c.93-.5,1.82-1.84,2.75-2.23a2.129,2.129,0,0,1,.44-.52c-.9.18-1.15.85-1.91,1.25a24.258,24.258,0,0,1,3.5-2.29c-.65.77-1.61.8-2.03,1.56-.55.11-.85.65-1.22,1.02,19.9-16.07,36.07-19.65,53.04,2.6,1.92,2.34,5.35,6.88,6.59,9.63,1.04,1.67,1.56,1.99,1.9,1.81,1.26-3.74-1.8-5.99-3.66-9.91C145.08-4.6,128.91-5.96,102.29,19.07c1.34-1.32,2.32-2.29,3.91-3.67,1.3-.95-1.74,2.21-2.35,2.35a45.433,45.433,0,0,0-4.16,4.54,14.079,14.079,0,0,0-2.36,2.46.67.67,0,0,1,.43-.04c-.23.24-.59.54-.81.79.23-.25.58-.55.81-.79a.673.673,0,0,0-.43.04c-.97,1.35-2.07,2.91-3.05,4.38h.04a13.3,13.3,0,0,1,2.08-2.31c-.65.57.02-.36.33-.42-.56,1-1.49,1.65-2.04,2.58-.21.21-.27.14-.37.14l-.36.5c.37-.26,1.35-1.2,1.35-1.2Z" fill="#231f20"/>
    <path id="Path_8157" data-name="Path 8157" d="M102.4,20.61l-.34.36c.49-.45.97-.91,1.47-1.35a3.912,3.912,0,0,0-1.13.99Z" fill="#231f20"/>
    <path id="Path_8158" data-name="Path 8158" d="M3.98,54.99l.94-.7C4.59,54.49,4.16,54.64,3.98,54.99Z" fill="#231f20"/>
    <path id="Path_8159" data-name="Path 8159" d="M5.79,53.65a1.372,1.372,0,0,0,.29-.25Z" fill="#231f20"/>
    <path id="Path_8160" data-name="Path 8160" d="M7.39,52.4c-.3.2-.57.41-.83.62A7.1,7.1,0,0,0,7.39,52.4Z" fill="#231f20"/>
    <path id="Path_8161" data-name="Path 8161" d="M6.04,53.3c.14-.05.19-.03.04.11l.47-.39a3.891,3.891,0,0,1-.52.28Z" fill="#231f20"/>
    <path id="Path_8162" data-name="Path 8162" d="M6.04,53.3c-.12.04-.3.13-.36.15Q5.845,53.39,6.04,53.3Z" fill="#231f20"/>
    <path id="Path_8163" data-name="Path 8163" d="M5.9,52.23c1.39-.51,2.44-2.1,3.94-2.57.75-.61,2.6-2.26,1.4-1.45-3.45,2.26-5.98,4.65-9.13,7.15A20.014,20.014,0,0,0,5.9,52.22Z" fill="#231f20"/>
    <path id="Path_8164" data-name="Path 8164" d="M10.81,49.74c3.04-2.05,5.8-3.76,8.78-5.56.31-.28-.32,0-.41,0a6.18,6.18,0,0,0,1.79-.91c-.55.41-1.04.61-1.52,1.02,1.26-.69,3.11-1.99,4.32-2.55l-.08.02c1.04-.37,2.18-1.58,3.19-1.9a2.486,2.486,0,0,1,.52-.48c-.94.11-1.3.75-2.13,1.06,1.3-.71,2.48-1.39,3.88-2-.76.74-1.73.69-2.28,1.41-.58.06-.97.57-1.41.89C41.68,32.45,55.69,16,74.89,15.73c6.7,1.84,12.59,8.46,19.72,9.96,1.19.24,3.69-.25,3.24-1.68-4.01-.2-5.95-1.78-9.89-4.25,1.51,1.03.85.85-.53.11-4.08-1.97-7.39-6.41-12.33-6.89-21.65.74-36.85,19.49-54.71,29.32l4.62-3.02c1.46-.78-2.12,1.97-2.78,1.99-1.63,1.11-3.86,2.54-5.24,3.64a17.815,17.815,0,0,0-3.03,1.83.652.652,0,0,1,.42.07l-1.04.56,1.04-.56c-.2-.61-4.62,3.31-4.82,3.33H9.6a17.026,17.026,0,0,1,2.78-1.66c-.82.38.14-.34.45-.32-.87.81-1.98,1.19-2.83,1.94-.27.14-.31.06-.4.04l-.51.38c.45-.15,1.71-.79,1.71-.79Z" fill="#231f20"/>
    <path id="Path_8165" data-name="Path 8165" d="M20.11,43.82l-.43.29,1.8-1.06a4.637,4.637,0,0,0-1.37.77Z" fill="#231f20"/>
    <path id="Path_8166" data-name="Path 8166" d="M123.82,24.59l-.05-.09C123.76,24.56,123.65,24.66,123.82,24.59Z" fill="#231f20"/>
    <path id="Path_8167" data-name="Path 8167" d="M123.74,24.42V24.4h-.04a.06.06,0,0,1,.04.01Z" fill="#231f20"/>
    <path id="Path_8168" data-name="Path 8168" d="M123.58,24.32a.269.269,0,0,0,.06.07A.064.064,0,0,0,123.58,24.32Z" fill="#231f20"/>
    <path id="Path_8169" data-name="Path 8169" d="M123.6,24.47a.321.321,0,0,1,.1-.07.142.142,0,0,1-.06-.02A.308.308,0,0,1,123.6,24.47Z" fill="#231f20"/>
    <path id="Path_8170" data-name="Path 8170" d="M123.6,24.47s-.05.07-.06.08A.328.328,0,0,0,123.6,24.47Z" fill="#231f20"/>
    <path id="Path_8171" data-name="Path 8171" d="M122.76,25s.2-.15.12-.15c-.11-.02-.26-.01-.3-.08-.07,0,.15-.22.08-.21-.11-.02-.55,0-.46.1.24.36.79.27.98.56.1-.36-.14-.18-.43-.22Z" fill="#231f20"/>
    <path id="Path_8172" data-name="Path 8172" d="M124.12,25.28l-.11.01c.12-.18,0-.2-.11-.22l-.09.11s.11-.01.13-.08c-.08.18-.05.27.03.32.06-.05.13-.1.14-.15Z" fill="#231f20"/>
    <path id="Path_8173" data-name="Path 8173" d="M124.03,25.46a.321.321,0,0,1-.05-.03l-.02.02.06.02h0Z" fill="#231f20"/>
    <path id="Path_8174" data-name="Path 8174" d="M123.16,24.16a3.726,3.726,0,0,1-.34-.57c-.17.06-.06-.03-.04-.09l-.04-.09-.04-.02c-.08,0-.12.09-.17.14.03-.04.11-.11.11-.17a.134.134,0,0,1-.06-.07.064.064,0,0,1,.06.07c.03.01.06.03.09.02a1.667,1.667,0,0,0-.08-.2c-.07-.05-.18-.05-.06-.17v-.04l-.03.02.02-.03-.05-.16a1.148,1.148,0,0,1-.19-.01l.1-.1a.3.3,0,0,1-.15.02c-.42.4.11.09-.09.29.19-.2-.33.11.09-.29-.07-.02-.06-.1.04-.21.14,0,.06.1-.04.21a.5.5,0,0,0,.15-.02l-.1.1c.05.01.13,0,.19.01-.55-1.74-1.27-3.62-.49-5.39.22-.27.05-.7.02-.93a3.344,3.344,0,0,0-1.74-.13c-1.01.25-.46.42-1.01.96.31-.36.67.18.02.58-.99.64-.03,1.2-.13,1.82.14,1.23.61,2.86,1.81,3.42.14.33.17.66.59.75-.35-.24-.61-.52.07-.41.07,0-.17.21-.09.21.04.07.19.07.3.1.07,0-.17.14-.13.14.85-.03.14.22.55.36.06-.06.15-.12.23-.19,0,.03-.03.1-.02.14,0-.03.03-.1.02-.14a1.11,1.11,0,0,0-.23.19,5.262,5.262,0,0,1,.63.16l.02-.02c-.08-.06-.11-.15-.02-.32-.03.07-.1.11-.14.08l.1-.11c.11.03.22.05.1.23h.11a.694.694,0,0,1-.15.14.219.219,0,0,0,.05.03,1.467,1.467,0,0,0,.17-.31Z" fill="#231f20"/>
    <path id="Path_8175" data-name="Path 8175" d="M122.65,23.36a.4.4,0,0,1,.04.03l-.06-.17c-.1.1-.04.12.02.15Z" fill="#231f20"/>
    <path id="Path_8176" data-name="Path 8176" d="M131.05,48.5a3.182,3.182,0,0,1-.34-.66c-.18.05-.06-.04-.04-.11l-.03-.1-.04-.02c-.08,0-.12.08-.18.13a.434.434,0,0,0,.12-.17.124.124,0,0,1-.06-.08.08.08,0,0,1,.06.08c.03.01.06.04.09.04l-.07-.23c-.06-.06-.19-.08-.05-.19v-.04l-.03.02.02-.03-.04-.18a1.062,1.062,0,0,1-.19-.04s.07-.06.11-.1a.422.422,0,0,1-.16,0c-.44.36.1.11-.1.3.2-.18-.34.06.1-.3-.07-.03-.06-.12.04-.23.14.02.06.12-.04.23a.28.28,0,0,0,.16,0,1.468,1.468,0,0,0-.11.1,1.062,1.062,0,0,0,.19.04c-.48-2.01-1.12-4.13-.42-6.15.21-.31.02-.81,0-1.05a3.049,3.049,0,0,0-1.74-.13c-1.02.28-.45.48-1,1.08.31-.4.68.19.04.64-.98.68,0,1.28-.12,1.94a7.314,7.314,0,0,0,2.24,4.73c-.32-.28-.63-.66.08-.44.07,0-.18.2-.1.21.04.08.19.1.31.15.07,0-.18.13-.14.14.88.08.13.28.56.46a1.464,1.464,0,0,1,.24-.17c0,.04-.03.11-.02.15,0-.04.03-.11.02-.15a1.661,1.661,0,0,0-.24.17,4.9,4.9,0,0,1,.65.25l.02-.02c-.08-.07-.11-.18-.01-.36-.03.07-.1.11-.14.07l.1-.11c.12.04.23.08.1.26H131c-.02.05-.09.09-.16.13a.1.1,0,0,0,.05.04,1.241,1.241,0,0,0,.18-.32Z" fill="#231f20"/>
    <path id="Path_8177" data-name="Path 8177" d="M130.55,47.58a.4.4,0,0,1,.04.03l-.06-.19c-.11.09-.05.13.01.16Z" fill="#231f20"/>
    <path id="Path_8178" data-name="Path 8178" d="M140.78,43.28c-.04-.14-.07-.28-.12-.41C140.67,43.03,140.58,43.21,140.78,43.28Z" fill="#231f20"/>
    <path id="Path_8179" data-name="Path 8179" d="M140.53,42.49a.4.4,0,0,0-.07-.12C140.48,42.41,140.51,42.45,140.53,42.49Z" fill="#231f20"/>
    <path id="Path_8180" data-name="Path 8180" d="M140.18,41.83a1.773,1.773,0,0,0,.16.34A.8.8,0,0,0,140.18,41.83Z" fill="#231f20"/>
    <path id="Path_8181" data-name="Path 8181" d="M140.35,42.4c.02-.06.06-.09.11-.03l-.11-.2A.885.885,0,0,1,140.35,42.4Z" fill="#231f20"/>
    <path id="Path_8182" data-name="Path 8182" d="M140.35,42.4c-.02.06-.03.13-.05.17A.845.845,0,0,0,140.35,42.4Z" fill="#231f20"/>
    <path id="Path_8183" data-name="Path 8183" d="M139.36,42.6c.33-.32-.38-.66-.46-1.01-.12-.1.06-.43-.06-.53-.21-.27-.96-.82-.7-.4.64,1.24,1.59,2.14,1.97,3.45.06-.69-.25-.94-.75-1.51Z" fill="#231f20"/>
    <path id="Path_8184" data-name="Path 8184" d="M139.28,40.53c-.46-.85-.91-1.65-1.39-2.41-.15.11-.62-1.39-.64-.55.06-.28-.13-.47-.3-.67.2.15.25.36.46.48-.21-.5-.82-.86-.98-1.33l-.1-.13v.04a1.451,1.451,0,0,0-.96-.73s-.03-.14-.05-.21a.486.486,0,0,1-.29-.02c.06.13.11.27.15.38.03.2.45-.04.41.29.04-.33-.38-.09-.41-.29-.05-.11-.09-.24-.15-.38a1.163,1.163,0,0,1-.57-.47.685.685,0,0,1,.57.47.736.736,0,0,0,.29.02c.02.07.05.21.05.21.14.06.32.09.46.16-6.37-6.82-20.44,11.78-20.74-2.24a1.063,1.063,0,0,0-1.78-.52c-.93,1.04-.4,1.71-.52,3.84.01-.73.23-.51.39.06.44,5.24,3.69,5.82,7.91,4.06,4.81-1.27,10.61-7.77,14.95-2.97-.43-.54-2.25-1.73-.56-1.07a1.653,1.653,0,0,0,.91,1.04c.14.07-.1.23-.03.27.97.42.92,1.09,1.5,1.75a.789.789,0,0,1,.2-.25c.05.11.08.29.13.4-.05-.11-.08-.29-.13-.4a.693.693,0,0,0-.2.25,11.924,11.924,0,0,1,1.31,1.49l.02-.02a2.624,2.624,0,0,1-.38-1.09c.03.18-.05.2-.16.04l.05-.2a1.188,1.188,0,0,1,.44.9l.18.15c.01.11-.07.15-.13.2.04.06.08.13.12.19a2.726,2.726,0,0,0-.01-.73Z" fill="#231f20"/>
    <path id="Path_8185" data-name="Path 8185" d="M137.19,37.17s.08.09.13.14c-.13-.21-.28-.41-.43-.62-.02.19.14.33.3.48Z" fill="#231f20"/>
  </g>
</svg>
